<svg width="18" height="18" viewBox="0 0 18 18" fill="none" xmlns="http://www.w3.org/2000/svg">
<g clip-path="url(#clip0_1126_7935)">
<circle cx="9" cy="9" r="9" fill="#D9D9D9"/>
<path d="M12.8225 5.18354C12.5859 4.94691 12.2036 4.94691 11.967 5.18354L9 8.14448L6.03299 5.17747C5.79636 4.94084 5.41411 4.94084 5.17747 5.17747C4.94084 5.41411 4.94084 5.79636 5.17747 6.03299L8.14448 9L5.17747 11.967C4.94084 12.2036 4.94084 12.5859 5.17747 12.8225C5.41411 13.0592 5.79636 13.0592 6.03299 12.8225L9 9.85552L11.967 12.8225C12.2036 13.0592 12.5859 13.0592 12.8225 12.8225C13.0592 12.5859 13.0592 12.2036 12.8225 11.967L9.85552 9L12.8225 6.03299C13.0531 5.80243 13.0531 5.41411 12.8225 5.18354Z" fill="white"/>
</g>
<defs>
<clipPath id="clip0_1126_7935">
<rect width="18" height="18" fill="white"/>
</clipPath>
</defs>
</svg>
