<svg width="18" height="18" viewBox="0 0 18 18" fill="none" xmlns="http://www.w3.org/2000/svg">
<path d="M9 1C12.0355 1 14.4996 3.33593 14.4996 6.21351L14.4996 11C14.4996 11.5523 14.0519 12 13.4996 12L4.49961 12C3.94732 12 3.49961 11.5523 3.49961 11L3.49961 6.21351C3.49961 3.33593 5.96451 1 9 1Z" stroke="#6E6E6E" stroke-linejoin="round"/>
<path d="M5.21052 8.41642C5.09429 8.41642 5 8.32608 5 8.21472V6.25792C5 4.46135 6.52527 3 8.40042 3C8.51666 3 8.61095 3.09034 8.61095 3.2017C8.61095 3.31306 8.51666 3.40341 8.40042 3.40341C6.75774 3.40341 5.42164 4.68351 5.42164 6.25735V8.21415C5.42164 8.32552 5.32735 8.41586 5.21112 8.41586L5.21052 8.41642Z" fill="#6E6E6E"/>
<path d="M15.0955 14L2.90448 14C2.40495 14 2 14.3491 2 14.7797L2 16.2203C2 16.6509 2.40495 17 2.90448 17L15.0955 17C15.595 17 16 16.6509 16 16.2203V14.7797C16 14.3491 15.595 14 15.0955 14Z" stroke="#6E6E6E"/>
</svg>
