<svg width="18" height="18" viewBox="0 0 18 18" fill="none" xmlns="http://www.w3.org/2000/svg">
<path fill-rule="evenodd" clip-rule="evenodd" d="M1.48769 10.1262C2.03572 9.3028 3.02241 8.37562 4.27953 7.6284C5.6586 6.8087 7.31436 6.23489 8.98896 6.23489C10.6615 6.23489 12.2696 6.80734 13.6256 7.62655C14.8475 8.36483 15.8384 9.28779 16.4656 10.1262C15.8384 10.9647 14.8475 11.8876 13.6256 12.6259C12.2696 13.4451 10.6615 14.0176 8.98896 14.0176C7.31436 14.0176 5.6586 13.4438 4.27953 12.6241C3.02241 11.8768 2.03572 10.9497 1.48769 10.1262ZM0.399994 10.1262C0.399876 10.0419 0.421134 9.95633 0.466006 9.87784C1.0782 8.80699 2.28072 7.65316 3.76859 6.76879C5.26246 5.88084 7.09328 5.23489 8.98896 5.23489C10.8867 5.23489 12.6722 5.8822 14.1427 6.77064C15.6108 7.65761 16.7973 8.80428 17.4938 9.84856C17.5508 9.93403 17.578 10.0307 17.5779 10.1262C17.578 10.2218 17.5508 10.3184 17.4938 10.4039C16.7973 11.4482 15.6108 12.5949 14.1427 13.4818C12.6722 14.3703 10.8867 15.0176 8.98896 15.0176C7.09328 15.0176 5.26246 14.3716 3.76859 13.4837C2.28072 12.5993 1.0782 11.4455 0.466006 10.3746C0.421134 10.2961 0.399876 10.2106 0.399994 10.1262Z" fill="#6E6E6E"/>
<path d="M11.7242 10.0496C11.7242 11.5604 10.4994 12.7852 8.98862 12.7852C7.47781 12.7852 6.25307 11.5604 6.25307 10.0496C6.25307 8.53883 7.47781 7.31408 8.98862 7.31408C10.4994 7.31408 11.7242 8.53883 11.7242 10.0496Z" stroke="#6E6E6E"/>
<path d="M8.9886 2.5V4.11778M14.9204 4.11778L13.8419 5.19629M2.5175 4.11778L3.59602 5.19629" stroke="#6E6E6E" stroke-linecap="round" stroke-linejoin="round"/>
</svg>
