<svg width="18" height="18" viewBox="0 0 18 18" fill="none" xmlns="http://www.w3.org/2000/svg">
<path d="M8.95694 4.79997L10.5144 3.24252C11.753 2.00392 13.7073 1.94944 14.8787 3.12087C16.0501 4.29229 15.9956 6.24656 14.757 7.48516L12.1719 10.0703C10.9333 11.3089 8.97904 11.3634 7.80761 10.1919C7.51882 9.90314 7.30641 9.5681 7.16388 9.20728" stroke="#666666" stroke-miterlimit="10" stroke-linecap="round"/>
<path d="M9.48668 12.755L7.92923 14.3125C6.69063 15.5511 4.73636 15.6055 3.56494 14.4341C2.39351 13.2627 2.44799 11.3084 3.68659 10.0698L6.27171 7.48471C7.51031 6.24611 9.46458 6.19163 10.636 7.36305C10.8784 7.60546 11.0686 7.8815 11.2058 8.1781" stroke="#666666" stroke-miterlimit="10" stroke-linecap="round"/>
</svg>
