<svg width="24" height="21" viewBox="0 0 24 21" fill="none" xmlns="http://www.w3.org/2000/svg">
<circle cx="20" cy="8" r="3" fill="white" stroke="#6E6E6E"/>
<path d="M8 5.375L18.5912 0.631018C19.2528 0.334688 20 0.81874 20 1.54365V14.557C20 15.2552 19.3026 15.7385 18.6489 15.4933L8 11.5V5.375Z" fill="white" stroke="#6E6E6E" stroke-linejoin="round"/>
<path d="M6 10.5L5.5 10.5L5.5 11L5.5 19C5.5 19.8284 6.17157 20.5 7 20.5C7.82843 20.5 8.5 19.8284 8.5 19L8.5 11L8.5 10.5L8 10.5L6 10.5Z" fill="white" stroke="#6E6E6E"/>
<path d="M0 8.5C0 6.567 1.567 5 3.5 5H9V12H3.5C1.567 12 0 10.433 0 8.5Z" fill="#6E6E6E"/>
</svg>
