<svg width="24" height="24" viewBox="0 0 24 24" fill="none" xmlns="http://www.w3.org/2000/svg">
<path d="M15.0075 20.1096C15.1017 19.8823 15.1687 19.6453 15.2075 19.4036H12.0959L8.9843 19.4036C9.02315 19.6453 9.09013 19.8823 9.18428 20.1096C9.34266 20.492 9.57479 20.8394 9.86744 21.132C10.1601 21.4247 10.5075 21.6568 10.8899 21.8152C11.2722 21.9736 11.682 22.0551 12.0959 22.0551C12.5098 22.0551 12.9196 21.9736 13.3019 21.8152C13.6843 21.6568 14.0317 21.4247 14.3244 21.132C14.617 20.8394 14.8491 20.492 15.0075 20.1096Z" stroke="#6E6E6E"/>
<path d="M5.95763 7.84661L6.45083 7.92881L6.45251 7.91875L6.45377 7.90863L5.95763 7.84661ZM18.1294 7.84661L17.6332 7.90863L17.6345 7.91875L17.6362 7.92881L18.1294 7.84661ZM21.9843 18.6526L21.6284 19.0038L21.6284 19.0038L21.9843 18.6526ZM2.10271 18.6526L1.74679 18.3015H1.74679L2.10271 18.6526ZM12.0435 2.47792C10.8664 2.47792 9.36724 2.73293 8.08347 3.52633C6.77917 4.33242 5.72457 5.67997 5.4615 7.7846L6.45377 7.90863C6.67756 6.1183 7.55015 5.0315 8.6092 4.37699C9.68877 3.70978 10.9891 3.47792 12.0435 3.47792V2.47792ZM12.0435 3.47792C13.0979 3.47792 14.3982 3.70978 15.4778 4.37699C16.5368 5.0315 17.4094 6.1183 17.6332 7.90863L18.6255 7.7846C18.3624 5.67997 17.3078 4.33242 16.0035 3.52633C14.7198 2.73293 13.2206 2.47792 12.0435 2.47792V3.47792ZM22.3402 18.3015C21.3164 17.2639 20.5142 15.4629 19.8995 13.4563C19.2905 11.4685 18.888 9.35693 18.6226 7.76441L17.6362 7.92881C17.904 9.53578 18.315 11.6983 18.9433 13.7492C19.5658 15.7813 20.4244 17.7836 21.6284 19.0038L22.3402 18.3015ZM21.7272 19.9098C22.1997 19.9098 22.45 19.5262 22.5333 19.2706C22.6183 19.0094 22.6316 18.5968 22.3402 18.3015L21.6284 19.0038C21.5917 18.9666 21.587 18.9334 21.587 18.9332C21.5868 18.9321 21.5873 18.9349 21.5867 18.9411C21.586 18.9473 21.5846 18.9542 21.5824 18.9608C21.5769 18.9777 21.5733 18.9745 21.5882 18.9603C21.5969 18.9521 21.6131 18.9392 21.6382 18.9282C21.6644 18.9168 21.6951 18.9098 21.7272 18.9098V19.9098ZM12.6521 19.9098H21.7272V18.9098H12.6521V19.9098ZM11.4349 19.9098H12.6521V18.9098H11.4349V19.9098ZM11.4349 18.9098H2.35976V19.9098H11.4349V18.9098ZM2.35976 18.9098C2.39189 18.9098 2.42264 18.9168 2.44876 18.9282C2.47387 18.9392 2.4901 18.9521 2.49875 18.9603C2.51374 18.9745 2.51005 18.9777 2.50455 18.9608C2.50239 18.9542 2.50096 18.9473 2.50034 18.9411C2.49971 18.9349 2.50017 18.9321 2.50002 18.9332C2.49999 18.9334 2.49535 18.9666 2.45862 19.0038L1.74679 18.3015C1.4554 18.5968 1.46866 19.0094 1.55374 19.2706C1.63701 19.5262 1.88731 19.9098 2.35976 19.9098V18.9098ZM2.45862 19.0038C3.66261 17.7836 4.52118 15.7813 5.14368 13.7492C5.77195 11.6983 6.183 9.53578 6.45083 7.92881L5.46444 7.76441C5.19902 9.35693 4.79648 11.4685 4.18754 13.4563C3.57283 15.4629 2.77056 17.2639 1.74679 18.3015L2.45862 19.0038Z" fill="#6E6E6E"/>
<path d="M13.237 2.21717C13.237 2.8894 12.692 3.43435 12.0198 3.43435C11.3476 3.43435 10.8026 2.8894 10.8026 2.21717C10.8026 1.54495 11.3476 1 12.0198 1C12.692 1 13.237 1.54495 13.237 2.21717Z" fill="#6E6E6E"/>
</svg>
