<svg width="24" height="24" viewBox="0 0 24 24" fill="none" xmlns="http://www.w3.org/2000/svg">
<g clip-path="url(#clip0_1078_5114)">
<path d="M15 17.8611H14.5C14.5 17.5849 14.7239 17.3611 15 17.3611V17.8611ZM14.1911 21.8905L14.5 21.4973L14.1911 21.8905ZM9.06254 17.8611V17.3611C9.17457 17.3611 9.28336 17.3987 9.37145 17.4679L9.06254 17.8611ZM21.5 4C21.5 3.17157 20.8284 2.5 20 2.5V1.5C21.3807 1.5 22.5 2.61929 22.5 4H21.5ZM21.5 15.8611V4H22.5V15.8611H21.5ZM20 17.3611C20.8284 17.3611 21.5 16.6895 21.5 15.8611H22.5C22.5 17.2418 21.3807 18.3611 20 18.3611V17.3611ZM15 17.3611H20V18.3611H15V17.3611ZM14.5 21.4973V17.8611H15.5V21.4973H14.5ZM14.5 21.4973V21.4973H15.5C15.5 22.3318 14.5383 22.7992 13.8822 22.2837L14.5 21.4973ZM9.37145 17.4679L14.5 21.4973L13.8822 22.2837L8.75364 18.2542L9.37145 17.4679ZM4 17.3611H9.06254V18.3611H4V17.3611ZM2.5 15.8611C2.5 16.6895 3.17157 17.3611 4 17.3611V18.3611C2.61929 18.3611 1.5 17.2418 1.5 15.8611H2.5ZM2.5 4V15.8611H1.5V4H2.5ZM4 2.5C3.17157 2.5 2.5 3.17157 2.5 4H1.5C1.5 2.61929 2.61929 1.5 4 1.5V2.5ZM20 2.5H4V1.5H20V2.5Z" fill="#6E6E6E"/>
</g>
<defs>
<clipPath id="clip0_1078_5114">
<rect width="24" height="24" fill="white" transform="matrix(-1 0 0 1 24 0)"/>
</clipPath>
</defs>
</svg>
