<svg width="24" height="24" viewBox="0 0 24 24" fill="none" xmlns="http://www.w3.org/2000/svg">
<path d="M11 4.5H5C3.89543 4.5 3 5.39543 3 6.5V19C3 20.1046 3.89543 21 5 21H18C19.1046 21 20 20.1046 20 19V13" stroke="#6E6E6E" stroke-linecap="round"/>
<path d="M15.8388 5.47487L16.8995 4.41421C17.6806 3.63317 18.9469 3.63316 19.7279 4.41421V4.41421C20.509 5.19526 20.509 6.46159 19.7279 7.24264L18.6673 8.3033M15.8388 5.47487L9.33543 11.9783C9.19583 12.1179 9.10067 12.2957 9.06195 12.4893L8.56131 14.9925C8.49134 15.3423 8.7998 15.6508 9.14966 15.5808L11.6529 15.0802C11.8465 15.0415 12.0243 14.9463 12.1639 14.8067L18.6673 8.3033M15.8388 5.47487L18.6673 8.3033" stroke="#6E6E6E" stroke-linecap="round"/>
</svg>
