<svg width="24" height="24" viewBox="0 0 24 24" fill="none" xmlns="http://www.w3.org/2000/svg">
<path d="M15.0075 20.1097C15.1017 19.8824 15.1686 19.6454 15.2075 19.4037H12.0959L8.98428 19.4037C9.02313 19.6454 9.09012 19.8824 9.18426 20.1097C9.34264 20.4921 9.57478 20.8395 9.86742 21.1321C10.1601 21.4248 10.5075 21.6569 10.8899 21.8153C11.2722 21.9737 11.682 22.0552 12.0959 22.0552C12.5097 22.0552 12.9196 21.9737 13.3019 21.8153C13.6843 21.6569 14.0317 21.4248 14.3243 21.1321C14.617 20.8395 14.8491 20.4921 15.0075 20.1097Z" stroke="#6E6E6E"/>
<path d="M5.95763 7.84672L6.45083 7.92892L6.45251 7.91886L6.45377 7.90874L5.95763 7.84672ZM18.1294 7.84672L17.6332 7.90874L17.6345 7.91886L17.6362 7.92892L18.1294 7.84672ZM21.9843 18.6528L21.6284 19.0039L21.6284 19.0039L21.9843 18.6528ZM2.10271 18.6528L1.74679 18.3016H1.74679L2.10271 18.6528ZM12.0435 2.47803C10.8664 2.47803 9.36724 2.73304 8.08347 3.52644C6.77917 4.33253 5.72457 5.68008 5.4615 7.7847L6.45377 7.90874C6.67756 6.11841 7.55015 5.03161 8.6092 4.37709C9.68877 3.70989 10.9891 3.47803 12.0435 3.47803V2.47803ZM12.0435 3.47803C13.0979 3.47803 14.3982 3.70989 15.4778 4.37709C16.5368 5.03161 17.4094 6.11841 17.6332 7.90874L18.6255 7.7847C18.3624 5.68008 17.3078 4.33253 16.0035 3.52644C14.7198 2.73304 13.2206 2.47803 12.0435 2.47803V3.47803ZM22.3402 18.3016C21.3164 17.264 20.5142 15.463 19.8995 13.4564C19.2905 11.4686 18.888 9.35703 18.6226 7.76452L17.6362 7.92892C17.904 9.53588 18.315 11.6984 18.9433 13.7493C19.5658 15.7814 20.4244 17.7837 21.6284 19.0039L22.3402 18.3016ZM21.7272 19.9099C22.1997 19.9099 22.45 19.5263 22.5333 19.2707C22.6183 19.0095 22.6316 18.5969 22.3402 18.3016L21.6284 19.0039C21.5916 18.9667 21.587 18.9335 21.587 18.9333C21.5868 18.9322 21.5873 18.935 21.5867 18.9412C21.586 18.9474 21.5846 18.9543 21.5824 18.9609C21.5769 18.9778 21.5733 18.9746 21.5882 18.9604C21.5969 18.9522 21.6131 18.9393 21.6382 18.9283C21.6644 18.9169 21.6951 18.9099 21.7272 18.9099V19.9099ZM12.6521 19.9099H21.7272V18.9099H12.6521V19.9099ZM11.4349 19.9099H12.6521V18.9099H11.4349V19.9099ZM11.4349 18.9099H2.35976V19.9099H11.4349V18.9099ZM2.35976 18.9099C2.39189 18.9099 2.42264 18.9169 2.44876 18.9283C2.47387 18.9393 2.4901 18.9522 2.49875 18.9604C2.51374 18.9746 2.51005 18.9778 2.50455 18.9609C2.50239 18.9543 2.50096 18.9474 2.50034 18.9412C2.49971 18.935 2.50017 18.9322 2.50002 18.9333C2.49999 18.9335 2.49535 18.9667 2.45862 19.0039L1.74679 18.3016C1.4554 18.5969 1.46866 19.0095 1.55374 19.2707C1.63701 19.5263 1.88731 19.9099 2.35976 19.9099V18.9099ZM2.45862 19.0039C3.66261 17.7837 4.52118 15.7814 5.14368 13.7493C5.77195 11.6984 6.183 9.53588 6.45083 7.92892L5.46444 7.76452C5.19902 9.35703 4.79648 11.4686 4.18754 13.4564C3.57283 15.463 2.77056 17.264 1.74679 18.3016L2.45862 19.0039Z" fill="#6E6E6E"/>
<path d="M13.237 2.21717C13.237 2.8894 12.692 3.43435 12.0198 3.43435C11.3476 3.43435 10.8026 2.8894 10.8026 2.21717C10.8026 1.54495 11.3476 1 12.0198 1C12.692 1 13.237 1.54495 13.237 2.21717Z" fill="#6E6E6E"/>
</svg>
