<svg width="18" height="18" viewBox="0 0 18 18" fill="none" xmlns="http://www.w3.org/2000/svg">
<g clip-path="url(#clip0_1078_5608)">
<path d="M11.25 13.3958H10.75C10.75 13.1196 10.9739 12.8958 11.25 12.8958V13.3958ZM10.4411 16.259L10.75 15.8658L10.4411 16.259ZM6.79691 13.3958V12.8958C6.90894 12.8958 7.01772 12.9334 7.10581 13.0026L6.79691 13.3958ZM16 3.5C16 2.67157 15.3284 2 14.5 2V1C15.8807 1 17 2.11929 17 3.5H16ZM16 11.3958V3.5H17V11.3958H16ZM14.5 12.8958C15.3284 12.8958 16 12.2242 16 11.3958H17C17 12.7765 15.8807 13.8958 14.5 13.8958V12.8958ZM11.25 12.8958H14.5V13.8958H11.25V12.8958ZM10.75 15.8658V13.3958H11.75V15.8658H10.75ZM10.75 15.8658V15.8658H11.75C11.75 16.7002 10.7883 17.1677 10.1322 16.6521L10.75 15.8658ZM7.10581 13.0026L10.75 15.8658L10.1322 16.6521L6.488 13.789L7.10581 13.0026ZM3.5 12.8958H6.79691V13.8958H3.5V12.8958ZM2 11.3958C2 12.2242 2.67157 12.8958 3.5 12.8958V13.8958C2.11929 13.8958 1 12.7765 1 11.3958H2ZM2 3.5V11.3958H1V3.5H2ZM3.5 2C2.67157 2 2 2.67157 2 3.5H1C1 2.11929 2.11929 1 3.5 1V2ZM14.5 2H3.5V1H14.5V2Z" fill="#6E6E6E"/>
</g>
<defs>
<clipPath id="clip0_1078_5608">
<rect width="18" height="18" fill="white" transform="matrix(-1 0 0 1 18 0)"/>
</clipPath>
</defs>
</svg>
