<svg width="18" height="18" viewBox="0 0 18 18" fill="none" xmlns="http://www.w3.org/2000/svg">
<path fill-rule="evenodd" clip-rule="evenodd" d="M1.48772 10.1267C2.03575 9.30326 3.02244 8.37608 4.27956 7.62886C5.65863 6.80915 7.31439 6.23535 8.98899 6.23535C10.6615 6.23535 12.2697 6.8078 13.6256 7.62701C14.8476 8.36529 15.8384 9.28825 16.4657 10.1267C15.8384 10.9651 14.8476 11.8881 13.6256 12.6264C12.2697 13.4456 10.6615 14.018 8.98899 14.018C7.31439 14.018 5.65863 13.4442 4.27956 12.6245C3.02244 11.8773 2.03575 10.9501 1.48772 10.1267ZM0.400025 10.1267C0.399907 10.0423 0.421164 9.95679 0.466037 9.8783C1.07823 8.80744 2.28075 7.65362 3.76862 6.76925C5.26249 5.8813 7.09331 5.23535 8.98899 5.23535C10.8868 5.23535 12.6722 5.88265 14.1427 6.7711C15.6108 7.65807 16.7973 8.80474 17.4938 9.84902C17.5508 9.93449 17.578 10.0311 17.5779 10.1267C17.578 10.2223 17.5508 10.3189 17.4938 10.4044C16.7973 11.4486 15.6108 12.5953 14.1427 13.4823C12.6722 14.3707 10.8868 15.018 8.98899 15.018C7.09331 15.018 5.26249 14.3721 3.76862 13.4841C2.28075 12.5998 1.07823 11.4459 0.466037 10.3751C0.421164 10.2966 0.399907 10.2111 0.400025 10.1267Z" fill="#6E6E6E"/>
<path d="M11.7242 10.05C11.7242 11.5608 10.4994 12.7856 8.9886 12.7856C7.4778 12.7856 6.25305 11.5608 6.25305 10.05C6.25305 8.5392 7.4778 7.31445 8.9886 7.31445C10.4994 7.31445 11.7242 8.5392 11.7242 10.05Z" stroke="#6E6E6E"/>
<path d="M8.98868 2.5V4.11778M14.9205 4.11778L13.842 5.19629M2.51758 4.11778L3.59609 5.19629" stroke="#6E6E6E" stroke-linecap="round" stroke-linejoin="round"/>
</svg>
