<svg width="24" height="24" viewBox="0 0 24 24" fill="none" xmlns="http://www.w3.org/2000/svg">
<g clip-path="url(#clip0_1031_4830)">
<circle cx="20" cy="10" r="3" fill="white" stroke="#6E6E6E"/>
<path d="M8 7.375L18.5912 2.63102C19.2528 2.33469 20 2.81874 20 3.54365V16.557C20 17.2552 19.3026 17.7385 18.6489 17.4933L8 13.5V7.375Z" fill="white" stroke="#6E6E6E" stroke-linejoin="round"/>
<path d="M6 12.5L5.5 12.5L5.5 13L5.5 21C5.5 21.8284 6.17157 22.5 7 22.5C7.82843 22.5 8.5 21.8284 8.5 21L8.5 13L8.5 12.5L8 12.5L6 12.5Z" fill="white" stroke="#6E6E6E"/>
<path d="M0 10.5C0 8.567 1.567 7 3.5 7H9V14H3.5C1.567 14 0 12.433 0 10.5Z" fill="#6E6E6E"/>
</g>
<defs>
<clipPath id="clip0_1031_4830">
<rect width="24" height="24" fill="white"/>
</clipPath>
</defs>
</svg>
