<svg width="20" height="22" viewBox="0 0 20 22" fill="none" xmlns="http://www.w3.org/2000/svg">
<rect x="1" y="3" width="18" height="18" rx="2" stroke="#5EBEEB"/>
<path d="M16.3753 3.37186V0.874888C16.3753 0.391701 15.9836 0 15.5005 0C15.0173 0 14.6256 0.391701 14.6256 0.874888V3.37186H5.16382V0.874888C5.16382 0.391701 4.77212 0 4.28893 0C3.80574 0 3.41404 0.391701 3.41404 0.874888V3.37186H3C1.89543 3.37186 1 4.26729 1 5.37186V7.84372H19V5.37186C19 4.26729 18.1046 3.37186 17 3.37186H16.3753Z" fill="#5EBEEB"/>
<rect x="13" y="11" width="2" height="2" rx="0.5" fill="#5EBEEB"/>
<rect x="9" y="11" width="2" height="2" rx="0.5" fill="#5EBEEB"/>
<rect x="5" y="11" width="2" height="2" rx="0.5" fill="#5EBEEB"/>
</svg>
