<svg width="24" height="24" viewBox="0 0 24 24" fill="none" xmlns="http://www.w3.org/2000/svg">
<path fill-rule="evenodd" clip-rule="evenodd" d="M3.0811 4.40463C0.84359 6.64215 0.843593 10.2699 3.0811 12.5074L12.1693 21.5956L12.1962 21.633L12.2015 21.6277L12.2067 21.633L12.2504 21.5788L21.3218 12.5074C23.5593 10.2699 23.5593 6.64215 21.3218 4.40463C19.0843 2.16712 15.4566 2.16712 13.2191 4.40464L12.2015 5.42226L11.1838 4.40464C8.94633 2.16712 5.31861 2.16712 3.0811 4.40463Z" fill="#5EBEEB"/>
<path d="M3.0811 12.5074L2.72755 12.8609L3.0811 12.5074ZM12.1693 21.5956L12.5754 21.3039C12.5596 21.2819 12.542 21.2612 12.5229 21.2421L12.1693 21.5956ZM12.1962 21.633L11.7901 21.9247C11.8757 22.0439 12.0094 22.1195 12.1556 22.1314C12.3019 22.1433 12.446 22.0903 12.5497 21.9866L12.1962 21.633ZM12.2015 21.6277L12.555 21.2742C12.3598 21.0789 12.0432 21.0789 11.8479 21.2742L12.2015 21.6277ZM12.2067 21.633L11.8532 21.9866C11.9535 22.0869 12.0918 22.1399 12.2335 22.1323C12.3752 22.1247 12.507 22.0572 12.5961 21.9467L12.2067 21.633ZM12.2504 21.5788L11.8969 21.2253C11.8842 21.2379 11.8723 21.2512 11.8611 21.2651L12.2504 21.5788ZM21.3218 12.5074L21.6754 12.8609V12.8609L21.3218 12.5074ZM21.3218 4.40463L21.6754 4.05108V4.05108L21.3218 4.40463ZM13.2191 4.40464L13.5726 4.75819L13.2191 4.40464ZM12.2015 5.42226L11.8479 5.77581C12.0432 5.97107 12.3598 5.97107 12.555 5.77581L12.2015 5.42226ZM11.1838 4.40464L11.5374 4.05108L11.1838 4.40464ZM3.43466 12.1538C1.39241 10.1116 1.39241 6.80044 3.43465 4.75819L2.72755 4.05108C0.294774 6.48385 0.294778 10.4282 2.72755 12.8609L3.43466 12.1538ZM12.5229 21.2421L3.43466 12.1538L2.72755 12.8609L11.8158 21.9492L12.5229 21.2421ZM11.7633 21.8873L11.7901 21.9247L12.6023 21.3413L12.5754 21.3039L11.7633 21.8873ZM12.5497 21.9866L12.555 21.9813L11.8479 21.2742L11.8427 21.2794L12.5497 21.9866ZM12.5603 21.2795L12.555 21.2742L11.8479 21.9813L11.8532 21.9866L12.5603 21.2795ZM11.8611 21.2651L11.8174 21.3193L12.5961 21.9467L12.6397 21.8925L11.8611 21.2651ZM12.604 21.9324L21.6754 12.8609L20.9683 12.1538L11.8969 21.2253L12.604 21.9324ZM21.6754 12.8609C24.1082 10.4282 24.1082 6.48385 21.6754 4.05108L20.9683 4.75819C23.0105 6.80044 23.0105 10.1116 20.9683 12.1538L21.6754 12.8609ZM21.6754 4.05108C19.2426 1.61831 15.2983 1.61831 12.8655 4.05108L13.5726 4.75819C15.6149 2.71594 18.926 2.71594 20.9683 4.75819L21.6754 4.05108ZM12.8655 4.05108L11.8479 5.0687L12.555 5.77581L13.5726 4.75819L12.8655 4.05108ZM10.8303 4.75819L11.8479 5.77581L12.555 5.06871L11.5374 4.05108L10.8303 4.75819ZM3.43465 4.75819C5.4769 2.71594 8.78804 2.71594 10.8303 4.75819L11.5374 4.05108C9.10463 1.61831 5.16032 1.61831 2.72755 4.05108L3.43465 4.75819Z" fill="#5EBEEB"/>
</svg>
