<svg width="24" height="24" viewBox="0 0 24 24" fill="none" xmlns="http://www.w3.org/2000/svg">
<g clip-path="url(#clip0_421_156)">
<path fill-rule="evenodd" clip-rule="evenodd" d="M4 2C2.89543 2 2 2.89543 2 4V15.562V15.8611V21.4989C2 21.9159 2.48027 22.1497 2.80843 21.8925L7.95236 17.8611H20C21.1046 17.8611 22 16.9656 22 15.8611V4C22 2.89543 21.1046 2 20 2H4Z" fill="white"/>
<path d="M2.80843 21.8925L2.5 21.4989H2.5L2.80843 21.8925ZM7.95236 17.8611V17.3611C7.84054 17.3611 7.73194 17.3985 7.64393 17.4675L7.95236 17.8611ZM2.5 4C2.5 3.17157 3.17157 2.5 4 2.5V1.5C2.61929 1.5 1.5 2.61929 1.5 4H2.5ZM2.5 15.562V4H1.5V15.562H2.5ZM2.5 15.8611V15.562H1.5V15.8611H2.5ZM2.5 21.4989V15.8611H1.5V21.4989H2.5ZM2.5 21.4989L2.5 21.4989H1.5C1.5 22.3328 2.46054 22.8004 3.11685 22.286L2.5 21.4989ZM7.64393 17.4675L2.5 21.4989L3.11685 22.286L8.26078 18.2546L7.64393 17.4675ZM20 17.3611H7.95236V18.3611H20V17.3611ZM21.5 15.8611C21.5 16.6895 20.8284 17.3611 20 17.3611V18.3611C21.3807 18.3611 22.5 17.2418 22.5 15.8611H21.5ZM21.5 4V15.8611H22.5V4H21.5ZM20 2.5C20.8284 2.5 21.5 3.17157 21.5 4H22.5C22.5 2.61929 21.3807 1.5 20 1.5V2.5ZM4 2.5H20V1.5H4V2.5Z" fill="#6E6E6E"/>
<path d="M6.5 6.5H17.5" stroke="#6E6E6E" stroke-linecap="round" stroke-linejoin="round"/>
<path d="M6.5 10H17.5" stroke="#6E6E6E" stroke-linecap="round" stroke-linejoin="round"/>
<path d="M6.5 13.5H13.5" stroke="#6E6E6E" stroke-linecap="round" stroke-linejoin="round"/>
</g>
<defs>
<clipPath id="clip0_421_156">
<rect width="24" height="24" fill="white"/>
</clipPath>
</defs>
</svg>
