<svg width="24" height="24" viewBox="0 0 24 24" fill="none" xmlns="http://www.w3.org/2000/svg">
<path fill-rule="evenodd" clip-rule="evenodd" d="M3.58645 13.503C4.19921 12.5679 5.31573 11.5146 6.73853 10.6689C8.28267 9.75104 10.1388 9.10715 12.0185 9.10715C13.8961 9.10715 15.6993 9.74968 17.2176 10.667C18.6022 11.5035 19.7231 12.5525 20.4258 13.503C19.7231 14.4535 18.6022 15.5024 17.2176 16.339C15.6993 17.2563 13.8961 17.8988 12.0185 17.8988C10.1388 17.8988 8.28267 17.2549 6.73853 16.3371C5.31573 15.4914 4.19921 14.4381 3.58645 13.503ZM2.5 13.503C2.4999 13.4187 2.52116 13.3332 2.56601 13.2547C3.24231 12.0717 4.57465 10.7917 6.22758 9.80925C7.88653 8.82318 9.91768 8.10715 12.0185 8.10715C14.1214 8.10715 16.1018 8.82454 17.7347 9.8111C19.3652 10.7962 20.6816 12.069 21.4529 13.2254C21.5098 13.3109 21.5371 13.4075 21.537 13.503C21.5371 13.5985 21.5098 13.6951 21.4529 13.7805C20.6816 14.937 19.3652 16.2098 17.7347 17.1949C16.1018 18.1814 14.1214 18.8988 12.0185 18.8988C9.91768 18.8988 7.88653 18.1828 6.22758 17.1967C4.57465 16.2142 3.24231 14.9343 2.56601 13.7513C2.52116 13.6728 2.4999 13.5873 2.5 13.503Z" fill="#6E6E6E"/>
<path d="M15.1257 13.4172C15.1257 15.1333 13.7345 16.5245 12.0183 16.5245C10.3022 16.5245 8.91098 15.1333 8.91098 13.4172C8.91098 11.701 10.3022 10.3098 12.0183 10.3098C13.7345 10.3098 15.1257 11.701 15.1257 13.4172Z" stroke="#6E6E6E"/>
<path d="M12.0183 5V6.80368M18.6318 6.80368L17.4294 8.00614M4.80362 6.80368L6.00607 8.00614" stroke="#6E6E6E" stroke-linecap="round" stroke-linejoin="round"/>
</svg>
