<svg width="24" height="24" viewBox="0 0 24 24" fill="none" xmlns="http://www.w3.org/2000/svg">
<path d="M20.9078 10.0769L20.5559 10.432L20.9078 10.0769ZM10.5922 2.64402L10.9441 2.99916L10.5922 2.64402ZM13.4078 2.64402L13.0559 2.99916L13.4078 2.64402ZM3.44412 10.432L10.9441 2.99916L10.2402 2.28888L2.7402 9.72176L3.44412 10.432ZM3 19.0698V11.4975H2V19.0698H3ZM8 20.5698H4.5V21.5698H8V20.5698ZM10.5 19.0698V15.8843H9.5V19.0698H10.5ZM10.5 15.8843C10.5 15.6081 10.7239 15.3843 11 15.3843V14.3843C10.1716 14.3843 9.5 15.0559 9.5 15.8843H10.5ZM11 15.3843H13V14.3843H11V15.3843ZM13 15.3843C13.2761 15.3843 13.5 15.6081 13.5 15.8843H14.5C14.5 15.0559 13.8284 14.3843 13 14.3843V15.3843ZM13.5 15.8843V19.0698H14.5V15.8843H13.5ZM19.5 20.5698H16V21.5698H19.5V20.5698ZM21 11.4975V19.0698H22V11.4975H21ZM13.0559 2.99916L20.5559 10.432L21.2598 9.72176L13.7598 2.28888L13.0559 2.99916ZM22 11.4975C22 10.8305 21.7335 10.1912 21.2598 9.72176L20.5559 10.432C20.8401 10.7137 21 11.0973 21 11.4975H22ZM19.5 21.5698C20.8807 21.5698 22 20.4505 22 19.0698H21C21 19.8982 20.3284 20.5698 19.5 20.5698V21.5698ZM13.5 19.0698C13.5 20.4505 14.6193 21.5698 16 21.5698V20.5698C15.1716 20.5698 14.5 19.8982 14.5 19.0698H13.5ZM8 21.5698C9.38071 21.5698 10.5 20.4505 10.5 19.0698H9.5C9.5 19.8982 8.82843 20.5698 8 20.5698V21.5698ZM2 19.0698C2 20.4505 3.11929 21.5698 4.5 21.5698V20.5698C3.67157 20.5698 3 19.8982 3 19.0698H2ZM10.9441 2.99916C11.5288 2.41971 12.4712 2.41971 13.0559 2.99916L13.7598 2.28888C12.7853 1.32314 11.2147 1.32314 10.2402 2.28888L10.9441 2.99916ZM2.7402 9.72176C2.26649 10.1912 2 10.8305 2 11.4975H3C3 11.0973 3.15989 10.7137 3.44412 10.432L2.7402 9.72176Z" fill="#5EBEEB"/>
</svg>
