<svg width="21" height="21" viewBox="0 0 21 21" fill="none" xmlns="http://www.w3.org/2000/svg">
<path d="M14.8003 6.20648C14.5341 5.94027 14.1041 5.94027 13.8379 6.20648L10.5 9.53754L7.16212 6.19966C6.8959 5.93345 6.46587 5.93345 6.19966 6.19966C5.93345 6.46587 5.93345 6.8959 6.19966 7.16212L9.53754 10.5L6.19966 13.8379C5.93345 14.1041 5.93345 14.5341 6.19966 14.8003C6.46587 15.0666 6.8959 15.0666 7.16212 14.8003L10.5 11.4625L13.8379 14.8003C14.1041 15.0666 14.5341 15.0666 14.8003 14.8003C15.0666 14.5341 15.0666 14.1041 14.8003 13.8379L11.4625 10.5L14.8003 7.16212C15.0597 6.90273 15.0597 6.46587 14.8003 6.20648Z" fill="#5EBEEB"/>
</svg>
