<svg width="24" height="24" viewBox="0 0 24 24" fill="none" xmlns="http://www.w3.org/2000/svg">
<path d="M12.7527 2.555L15.0227 7.155C15.1727 7.455 15.4527 7.655 15.7727 7.705L20.8527 8.445C21.6727 8.565 22.0027 9.575 21.4027 10.155L17.7327 13.735C17.4927 13.965 17.3927 14.295 17.4427 14.625L18.3127 19.675C18.4527 20.495 17.5927 21.115 16.8627 20.725L12.3227 18.335C12.0327 18.185 11.6827 18.185 11.3927 18.335L6.85266 20.725C6.12266 21.115 5.26266 20.485 5.40266 19.675L6.27266 14.625C6.33266 14.305 6.22266 13.965 5.98266 13.735L2.30266 10.145C1.71266 9.565 2.03266 8.555 2.85266 8.435L7.93266 7.695C8.26266 7.645 8.54266 7.445 8.68266 7.145L10.9627 2.555C11.3327 1.815 12.3927 1.815 12.7527 2.555Z" stroke="#6E6E6E" stroke-linecap="round" stroke-linejoin="round"/>
</svg>
