<svg width="24" height="24" viewBox="0 0 24 24" fill="none" xmlns="http://www.w3.org/2000/svg">
<g clip-path="url(#clip0_420_120)">
<path d="M16.5 15.3333H7.5C5.01472 15.3333 3 17.3232 3 19.7778V21C3 21.5523 3.44772 22 4 22H20C20.5523 22 21 21.5523 21 21V19.7778C21 17.3232 18.9853 15.3333 16.5 15.3333Z" stroke="#6E6E6E" stroke-linecap="round" stroke-linejoin="round"/>
<path d="M12 10.8889C14.4853 10.8889 16.5 8.89904 16.5 6.44444C16.5 3.98985 14.4853 2 12 2C9.51472 2 7.5 3.98985 7.5 6.44444C7.5 8.89904 9.51472 10.8889 12 10.8889Z" stroke="#6E6E6E" stroke-linecap="round" stroke-linejoin="round"/>
</g>
<defs>
<clipPath id="clip0_420_120">
<rect width="24" height="24" fill="white"/>
</clipPath>
</defs>
</svg>
